<svg preserveAspectRatio="none" overflow="visible" style="display: block;" width="450.399" height="450.396" viewBox="0 0 450.399 450.396" fill="none" xmlns="http://www.w3.org/2000/svg">
<g id="Union" opacity="0.7" filter="url(#filter0_f_0_38)">
<path d="M152.165 44.501V70.3145C152.165 96.1283 164.195 108.852 190.009 108.853C215.823 108.853 229.109 96.1292 229.109 70.3154V44.501L302.642 44.502C311.77 44.502 320.525 48.1282 326.979 54.583C333.434 61.0378 337.06 69.7925 337.061 78.9209L337.062 147.758H362.876C374.286 147.758 385.229 152.291 393.298 160.359C401.366 168.428 405.899 179.371 405.899 190.781C405.899 202.192 401.367 213.135 393.299 221.203C385.23 229.271 374.287 233.805 362.876 233.805L337.062 233.804L337.063 302.642C337.062 311.77 333.436 320.524 326.981 326.979C320.527 333.433 311.772 337.06 302.644 337.06H233.806V362.873C233.806 374.283 229.273 385.227 221.205 393.295C213.137 401.363 202.193 405.896 190.782 405.896C179.372 405.895 168.429 401.363 160.36 393.295C152.292 385.226 147.759 374.283 147.759 362.872L147.758 337.059L78.9199 337.058C69.7916 337.057 61.0368 333.431 54.582 326.977C48.1275 320.522 44.5011 311.768 44.501 302.64V237.244H70.3145C76.725 237.244 82.8169 235.969 88.3535 233.659V158.285H103.637C95.2175 149.65 83.4337 144.315 70.3145 144.314L44.5 144.313V78.9189C44.4999 69.7906 48.1254 61.0357 54.5801 54.5811C61.0348 48.1264 69.7896 44.5 78.918 44.5L152.165 44.501Z" fill="#90D79D" fill-opacity="0.2"/>
</g>
<defs>
<filter id="filter0_f_0_38" x="-8.00952e-10" y="0" width="450.399" height="450.396" filterUnits="userSpaceOnUse" color-interpolation-filters="sRGB">
<feFlood flood-opacity="0" result="BackgroundImageFix"/>
<feBlend mode="normal" in="SourceGraphic" in2="BackgroundImageFix" result="shape"/>
<feGaussianBlur stdDeviation="22.25" result="effect1_foregroundBlur_0_38"/>
</filter>
</defs>
</svg>

