<svg preserveAspectRatio="none" overflow="visible" style="display: block;" width="846.62" height="846.626" viewBox="0 0 846.62 846.626" fill="none" xmlns="http://www.w3.org/2000/svg">
<g id="Union" opacity="0.7" filter="url(#filter0_f_0_4)">
<path d="M270.205 98.6162C270.205 152.732 295.423 179.407 349.538 179.407C403.654 179.407 431.506 152.733 431.506 98.6172V44.501L585.656 44.502C604.793 44.5021 623.145 52.1041 636.677 65.6357C650.208 79.1674 657.81 97.5198 657.811 116.656L657.812 260.966L711.927 260.967C735.847 260.967 758.789 270.469 775.703 287.384C792.618 304.298 802.12 327.239 802.12 351.16C802.12 375.081 792.618 398.022 775.704 414.937C758.79 431.851 735.848 441.354 711.928 441.354H657.813V585.663C657.812 604.8 650.211 623.152 636.68 636.684C623.148 650.215 604.796 657.817 585.659 657.817L441.351 657.816V711.933C441.351 735.853 431.849 758.795 414.935 775.709C398.02 792.623 375.079 802.126 351.158 802.126C327.238 802.126 304.297 792.623 287.383 775.708C270.468 758.793 260.965 735.852 260.965 711.932V657.815H116.656C97.52 657.815 79.1673 650.213 65.6357 636.682C52.1042 623.15 44.5021 604.797 44.502 585.66L44.501 448.566H98.6172C113.571 448.566 127.698 445.259 140.313 439.332V297.523H180.116C162.767 271.082 132.858 253.748 98.6162 253.748H44.501L44.5 116.654C44.4999 97.5177 52.1013 79.1644 65.6328 65.6328C79.1642 52.1013 97.517 44.5 116.653 44.5H270.204L270.205 98.6162Z" fill="#90D79D" fill-opacity="0.2"/>
</g>
<defs>
<filter id="filter0_f_0_4" x="-7.61261e-10" y="0" width="846.62" height="846.626" filterUnits="userSpaceOnUse" color-interpolation-filters="sRGB">
<feFlood flood-opacity="0" result="BackgroundImageFix"/>
<feBlend mode="normal" in="SourceGraphic" in2="BackgroundImageFix" result="shape"/>
<feGaussianBlur stdDeviation="22.25" result="effect1_foregroundBlur_0_4"/>
</filter>
</defs>
</svg>
