<svg preserveAspectRatio="none" overflow="visible" style="display: block;" width="72" height="72" viewBox="0 0 72 72" fill="none" xmlns="http://www.w3.org/2000/svg">
<g id="boxicons:thunder-filled">
<path id="Vector" d="M59.67 7.62C59.4166 7.13086 59.0334 6.72094 58.5624 6.43518C58.0914 6.14942 57.5509 5.99886 57 6H30C28.83 6 27.75 6.69 27.27 7.77L12.27 40.77C11.85 41.7 11.94 42.78 12.48 43.65C13.02 44.52 13.98 45.03 15 45.03H30V63.03C30 63.8256 30.3161 64.5887 30.8787 65.1513C31.4413 65.7139 32.2044 66.03 33 66.03C33.93 66.03 34.86 65.58 35.43 64.8L59.43 31.8C59.7532 31.3524 59.9467 30.8243 59.989 30.2738C60.0314 29.7233 59.921 29.1718 59.67 28.68C59.4235 28.1831 59.0427 27.7651 58.5708 27.4735C58.0989 27.1819 57.5547 27.0282 57 27.03H47.82L59.43 10.77C59.7532 10.3224 59.9467 9.79426 59.989 9.24377C60.0314 8.69328 59.921 8.14178 59.67 7.65V7.62Z" fill="#F2D389"/>
</g>
</svg>
